<svg width="17" height="21" viewBox="0 0 17 21" fill="none" xmlns="http://www.w3.org/2000/svg">
<path fill-rule="evenodd" clip-rule="evenodd" d="M15.9704 6.62292L8.63704 0.20625C8.31111 -0.06875 7.90371 -0.06875 7.65926 0.20625L0.325926 6.62292C0.0814815 6.80625 0 7.08125 0 7.35625V17.4396C0 18.9979 1.05926 20.1896 2.44445 20.1896H13.8519C15.237 20.1896 16.2963 18.9979 16.2963 17.4396V7.35625C16.2963 7.08125 16.2148 6.80625 15.9704 6.62292ZM9.77778 18.3562H6.51852V11.0229H9.77778V18.3562ZM13.8519 18.3562C14.3407 18.3562 14.6667 17.9896 14.6667 17.4396V7.81458L8.14815 2.13125L1.62963 7.81458V17.4396C1.62963 17.9896 1.95556 18.3562 2.44445 18.3562H4.88889V10.1062C4.88889 9.55625 5.21482 9.18958 5.7037 9.18958H10.5926C11.0815 9.18958 11.4074 9.55625 11.4074 10.1062V18.3562H13.8519Z" fill="#1A055D"/>
<mask id="mask0_186_2319" style="mask-type:alpha" maskUnits="userSpaceOnUse" x="0" y="0" width="17" height="21">
<path fill-rule="evenodd" clip-rule="evenodd" d="M15.9704 6.62292L8.63704 0.20625C8.31111 -0.06875 7.90371 -0.06875 7.65926 0.20625L0.325926 6.62292C0.0814815 6.80625 0 7.08125 0 7.35625V17.4396C0 18.9979 1.05926 20.1896 2.44445 20.1896H13.8519C15.237 20.1896 16.2963 18.9979 16.2963 17.4396V7.35625C16.2963 7.08125 16.2148 6.80625 15.9704 6.62292ZM9.77778 18.3562H6.51852V11.0229H9.77778V18.3562ZM13.8519 18.3562C14.3407 18.3562 14.6667 17.9896 14.6667 17.4396V7.81458L8.14815 2.13125L1.62963 7.81458V17.4396C1.62963 17.9896 1.95556 18.3562 2.44445 18.3562H4.88889V10.1062C4.88889 9.55625 5.21482 9.18958 5.7037 9.18958H10.5926C11.0815 9.18958 11.4074 9.55625 11.4074 10.1062V18.3562H13.8519Z" fill="white"/>
</mask>
<g mask="url(#mask0_186_2319)">
<rect x="-1.62939" y="-0.893555" width="19.5556" height="22" fill="#283044"/>
</g>
</svg>
