<svg width="17" height="20" viewBox="0 0 17 20" fill="none" xmlns="http://www.w3.org/2000/svg">
<path fill-rule="evenodd" clip-rule="evenodd" d="M13.6364 1.81818H12.7273C12.7273 0.818182 11.9091 0 10.9091 0H5.45455C4.45455 0 3.63636 0.818182 3.63636 1.81818H2.72727C1.18182 1.81818 0 3 0 4.54545V17.2727C0 18.8182 1.18182 20 2.72727 20H13.6364C15.1818 20 16.3636 18.8182 16.3636 17.2727V4.54545C16.3636 3 15.1818 1.81818 13.6364 1.81818ZM5.45459 1.81836H10.9091V3.63654H5.45459V2.72745V1.81836ZM13.6365 18.1822C14.182 18.1822 14.5456 17.8185 14.5456 17.2731V4.54581C14.5456 4.00036 14.182 3.63672 13.6365 3.63672H12.7275C12.7275 4.63672 11.9093 5.4549 10.9093 5.4549H5.45472C4.45472 5.4549 3.63654 4.63672 3.63654 3.63672H2.72745C2.182 3.63672 1.81836 4.00036 1.81836 4.54581V17.2731C1.81836 17.8185 2.182 18.1822 2.72745 18.1822H13.6365Z" fill="black"/>
<mask id="mask0_214_17529" style="mask-type:alpha" maskUnits="userSpaceOnUse" x="0" y="0" width="17" height="20">
<path fill-rule="evenodd" clip-rule="evenodd" d="M13.6364 1.81818H12.7273C12.7273 0.818182 11.9091 0 10.9091 0H5.45455C4.45455 0 3.63636 0.818182 3.63636 1.81818H2.72727C1.18182 1.81818 0 3 0 4.54545V17.2727C0 18.8182 1.18182 20 2.72727 20H13.6364C15.1818 20 16.3636 18.8182 16.3636 17.2727V4.54545C16.3636 3 15.1818 1.81818 13.6364 1.81818ZM5.45459 1.81836H10.9091V3.63654H5.45459V2.72745V1.81836ZM13.6365 18.1822C14.182 18.1822 14.5456 17.8185 14.5456 17.2731V4.54581C14.5456 4.00036 14.182 3.63672 13.6365 3.63672H12.7275C12.7275 4.63672 11.9093 5.4549 10.9093 5.4549H5.45472C4.45472 5.4549 3.63654 4.63672 3.63654 3.63672H2.72745C2.182 3.63672 1.81836 4.00036 1.81836 4.54581V17.2731C1.81836 17.8185 2.182 18.1822 2.72745 18.1822H13.6365Z" fill="white"/>
</mask>
<g mask="url(#mask0_214_17529)">
</g>
</svg>
